<svg xmlns="http://www.w3.org/2000/svg" viewBox="0 0 176.76 67.78"><defs><style>.cls-1{fill:aqua;}.cls-2{fill:#ff7bac;}.cls-3{fill:#22b573;}.cls-4{fill:none;stroke:#4e4e4e;stroke-miterlimit:10;stroke-width:0.25px;}.cls-5{fill:#a67c52;}.cls-6{fill:blue;}.cls-7{fill:#fcee21;}.cls-8{fill:#d9e021;}.cls-9{fill:#2e3192;}.cls-10{fill:red;}.cls-11{fill:#c7b299;}.cls-12{fill:#998675;}.cls-13{font-size:57.34px;fill:#4e4e4e;font-family:KozGoPro-Light-83pv-RKSJ-H, Kozuka Gothic Pro;}.cls-14{fill:#f15a24;}</style></defs><title>logo (2)</title><g id="レイヤー_2" data-name="レイヤー 2"><g id="logo"><polygon class="cls-1" points="36.36 15.6 32.16 17.76 36.07 20.07 40.26 17.92 36.36 15.6"/><polygon class="cls-2" points="26.77 12.85 22.57 15.01 26.48 17.32 30.67 15.17 26.77 12.85"/><polygon class="cls-3" points="47.77 31.85 43.58 34.01 47.48 36.33 51.67 34.17 47.77 31.85"/><polygon class="cls-4" points="45.77 42.85 41.58 45.01 45.48 47.33 49.67 45.17 45.77 42.85"/><polygon class="cls-5" points="40.26 50.88 36.07 53.03 39.97 55.35 44.16 53.19 40.26 50.88"/><polygon class="cls-6" points="31.29 56.15 27.1 58.31 31 60.63 35.2 58.47 31.29 56.15"/><polygon class="cls-7" points="21.29 56.15 17.1 58.31 21 60.63 25.2 58.47 21.29 56.15"/><polygon class="cls-8" points="11.29 51.15 7.1 53.31 11 55.63 15.2 53.47 11.29 51.15"/><polygon class="cls-9" points="5.19 42.41 1 44.57 4.9 46.89 9.1 44.73 5.19 42.41"/><polygon class="cls-10" points="4.19 31.41 0 33.57 3.9 35.89 8.1 33.73 4.19 31.41"/><polygon class="cls-11" points="7.67 22.61 3.48 24.77 7.38 27.09 11.57 24.93 7.67 22.61"/><polygon class="cls-12" points="15.67 14.61 11.48 16.77 15.38 19.09 19.57 16.93 15.67 14.61"/><text class="cls-13" transform="translate(60.85 50.46) scale(1.01 1)">sync</text><polygon class="cls-14" points="44.48 22.86 40.29 25.02 44.2 27.34 48.39 25.18 44.48 22.86"/></g></g></svg>